<?xml version="1.0" encoding="UTF-8" standalone="no"?>
<svg
   version="1.1"
   style="display:block"
   viewBox="0 0 1440 1024"
   width="360"
   height="256"
   preserveAspectRatio="none"
   id="svg149"
   sodipodi:docname="mespina.svg"
   inkscape:export-filename="C:\hr\hr\De\Numerana-calculator\src\assets\img\monthNew.svg"
   inkscape:export-xdpi="96"
   inkscape:export-ydpi="96"
   xmlns:inkscape="http://www.inkscape.org/namespaces/inkscape"
   xmlns:sodipodi="http://sodipodi.sourceforge.net/DTD/sodipodi-0.dtd"
   xmlns="http://www.w3.org/2000/svg"
   xmlns:svg="http://www.w3.org/2000/svg">
  <sodipodi:namedview
     id="namedview149"
     pagecolor="#ffffff"
     bordercolor="#000000"
     borderopacity="0.25"
     inkscape:showpageshadow="2"
     inkscape:pageopacity="0.0"
     inkscape:pagecheckerboard="0"
     inkscape:deskcolor="#d1d1d1">
    <inkscape:page
       x="0"
       y="0"
       width="1440"
       height="1024"
       id="page2"
       margin="0"
       bleed="0" />
  </sodipodi:namedview>
  <defs
     id="defs40">
    <linearGradient
       id="Gradient1"
       gradientUnits="userSpaceOnUse"
       x1="915.49902"
       y1="799.97302"
       x2="1016.99"
       y2="694.48102">
      <stop
         class="stop0"
         offset="0"
         stop-opacity="1"
         stop-color="rgb(248,229,174)"
         id="stop1" />
      <stop
         class="stop1"
         offset="1"
         stop-opacity="1"
         stop-color="rgb(255,255,244)"
         id="stop2" />
    </linearGradient>
    <linearGradient
       id="Gradient2"
       gradientUnits="userSpaceOnUse"
       x1="881.505"
       y1="695.01202"
       x2="933.88397"
       y2="738.93402">
      <stop
         class="stop0"
         offset="0"
         stop-opacity="1"
         stop-color="rgb(241,219,111)"
         id="stop3" />
      <stop
         class="stop1"
         offset="1"
         stop-opacity="1"
         stop-color="rgb(255,237,183)"
         id="stop4" />
    </linearGradient>
    <linearGradient
       id="Gradient3"
       gradientUnits="userSpaceOnUse"
       x1="908.12201"
       y1="841.97803"
       x2="937.849"
       y2="812.03601">
      <stop
         class="stop0"
         offset="0"
         stop-opacity="1"
         stop-color="rgb(250,225,118)"
         id="stop5" />
      <stop
         class="stop1"
         offset="1"
         stop-opacity="1"
         stop-color="rgb(255,251,171)"
         id="stop6" />
    </linearGradient>
    <linearGradient
       id="Gradient4"
       gradientUnits="userSpaceOnUse"
       x1="728.98999"
       y1="780.06897"
       x2="728.15302"
       y2="736.39099">
      <stop
         class="stop0"
         offset="0"
         stop-opacity="1"
         stop-color="rgb(145,85,5)"
         id="stop7" />
      <stop
         class="stop1"
         offset="1"
         stop-opacity="1"
         stop-color="rgb(166,123,36)"
         id="stop8" />
    </linearGradient>
    <linearGradient
       id="Gradient5"
       gradientUnits="userSpaceOnUse"
       x1="715.15399"
       y1="339.52499"
       x2="712.66901"
       y2="356.70099">
      <stop
         class="stop0"
         offset="0"
         stop-opacity="1"
         stop-color="rgb(204,138,38)"
         id="stop9" />
      <stop
         class="stop1"
         offset="1"
         stop-opacity="1"
         stop-color="rgb(220,168,69)"
         id="stop10" />
    </linearGradient>
    <linearGradient
       id="Gradient6"
       gradientUnits="userSpaceOnUse"
       x1="786.49902"
       y1="296.13"
       x2="747.51501"
       y2="258.98599">
      <stop
         class="stop0"
         offset="0"
         stop-opacity="1"
         stop-color="rgb(244,220,111)"
         id="stop11" />
      <stop
         class="stop1"
         offset="1"
         stop-opacity="1"
         stop-color="rgb(255,246,169)"
         id="stop12" />
    </linearGradient>
    <linearGradient
       id="Gradient7"
       gradientUnits="userSpaceOnUse"
       x1="602.474"
       y1="219.673"
       x2="745.79602"
       y2="240.198">
      <stop
         class="stop0"
         offset="0"
         stop-opacity="1"
         stop-color="rgb(243,223,123)"
         id="stop13" />
      <stop
         class="stop1"
         offset="1"
         stop-opacity="1"
         stop-color="rgb(255,245,189)"
         id="stop14" />
    </linearGradient>
    <linearGradient
       id="Gradient8"
       gradientUnits="userSpaceOnUse"
       x1="657.354"
       y1="307.36499"
       x2="747.5"
       y2="161.489">
      <stop
         class="stop0"
         offset="0"
         stop-opacity="1"
         stop-color="rgb(241,217,158)"
         id="stop15" />
      <stop
         class="stop1"
         offset="1"
         stop-opacity="1"
         stop-color="rgb(255,255,242)"
         id="stop16" />
    </linearGradient>
    <linearGradient
       id="Gradient9"
       gradientUnits="userSpaceOnUse"
       x1="543.37201"
       y1="698.258"
       x2="563.13202"
       y2="679.69098">
      <stop
         class="stop0"
         offset="0"
         stop-opacity="1"
         stop-color="rgb(250,240,177)"
         id="stop17" />
      <stop
         class="stop1"
         offset="1"
         stop-opacity="1"
         stop-color="rgb(252,251,219)"
         id="stop18" />
    </linearGradient>
    <linearGradient
       id="Gradient10"
       gradientUnits="userSpaceOnUse"
       x1="573.49597"
       y1="817.39502"
       x2="528.51898"
       y2="754.19598">
      <stop
         class="stop0"
         offset="0"
         stop-opacity="1"
         stop-color="rgb(245,221,111)"
         id="stop19" />
      <stop
         class="stop1"
         offset="1"
         stop-opacity="1"
         stop-color="rgb(255,255,185)"
         id="stop20" />
    </linearGradient>
    <linearGradient
       id="Gradient11"
       gradientUnits="userSpaceOnUse"
       x1="413.34698"
       y1="700.13599"
       x2="473.564"
       y2="743.65997">
      <stop
         class="stop0"
         offset="0"
         stop-opacity="1"
         stop-color="rgb(240,214,111)"
         id="stop21" />
      <stop
         class="stop1"
         offset="1"
         stop-opacity="1"
         stop-color="rgb(255,240,174)"
         id="stop22" />
    </linearGradient>
    <linearGradient
       id="Gradient12"
       gradientUnits="userSpaceOnUse"
       x1="384.29401"
       y1="762.92902"
       x2="392.573"
       y2="764.05298">
      <stop
         class="stop0"
         offset="0"
         stop-opacity="1"
         stop-color="rgb(172,136,62)"
         id="stop23" />
      <stop
         class="stop1"
         offset="1"
         stop-opacity="1"
         stop-color="rgb(202,164,91)"
         id="stop24" />
    </linearGradient>
    <linearGradient
       id="Gradient13"
       gradientUnits="userSpaceOnUse"
       x1="192.021"
       y1="600.76898"
       x2="181.94099"
       y2="649.31">
      <stop
         class="stop0"
         offset="0"
         stop-opacity="1"
         stop-color="rgb(181,135,45)"
         id="stop25" />
      <stop
         class="stop1"
         offset="1"
         stop-opacity="1"
         stop-color="rgb(222,162,54)"
         id="stop26" />
    </linearGradient>
    <linearGradient
       id="Gradient14"
       gradientUnits="userSpaceOnUse"
       x1="451.367"
       y1="786.09698"
       x2="556.90002"
       y2="695.55902">
      <stop
         class="stop0"
         offset="0"
         stop-opacity="1"
         stop-color="rgb(249,231,178)"
         id="stop27" />
      <stop
         class="stop1"
         offset="1"
         stop-opacity="1"
         stop-color="rgb(255,255,243)"
         id="stop28" />
    </linearGradient>
    <linearGradient
       id="Gradient15"
       gradientUnits="userSpaceOnUse"
       x1="181.28101"
       y1="565.08502"
       x2="144.742"
       y2="596.995">
      <stop
         class="stop0"
         offset="0"
         stop-opacity="1"
         stop-color="rgb(248,208,143)"
         id="stop29" />
      <stop
         class="stop1"
         offset="1"
         stop-opacity="1"
         stop-color="rgb(252,235,163)"
         id="stop30" />
    </linearGradient>
    <linearGradient
       id="Gradient16"
       gradientUnits="userSpaceOnUse"
       x1="221.836"
       y1="515.95001"
       x2="262.59299"
       y2="470.82599">
      <stop
         class="stop0"
         offset="0"
         stop-opacity="1"
         stop-color="rgb(249,222,125)"
         id="stop31" />
      <stop
         class="stop1"
         offset="1"
         stop-opacity="1"
         stop-color="rgb(254,254,217)"
         id="stop32" />
    </linearGradient>
    <linearGradient
       id="Gradient17"
       gradientUnits="userSpaceOnUse"
       x1="842.17297"
       y1="514.95001"
       x2="902.62402"
       y2="484.65399">
      <stop
         class="stop0"
         offset="0"
         stop-opacity="1"
         stop-color="rgb(156,96,5)"
         id="stop33" />
      <stop
         class="stop1"
         offset="1"
         stop-opacity="1"
         stop-color="rgb(143,101,67)"
         id="stop34" />
    </linearGradient>
    <linearGradient
       id="Gradient18"
       gradientUnits="userSpaceOnUse"
       x1="1353.03"
       y1="579.54303"
       x2="1319.39"
       y2="546.62799">
      <stop
         class="stop0"
         offset="0"
         stop-opacity="1"
         stop-color="rgb(241,217,112)"
         id="stop35" />
      <stop
         class="stop1"
         offset="1"
         stop-opacity="1"
         stop-color="rgb(255,247,168)"
         id="stop36" />
    </linearGradient>
    <linearGradient
       id="Gradient19"
       gradientUnits="userSpaceOnUse"
       x1="1214.29"
       y1="542.76001"
       x2="1158.54"
       y2="514.65302">
      <stop
         class="stop0"
         offset="0"
         stop-opacity="1"
         stop-color="rgb(144,81,8)"
         id="stop37" />
      <stop
         class="stop1"
         offset="1"
         stop-opacity="1"
         stop-color="rgb(147,104,31)"
         id="stop38" />
    </linearGradient>
    <linearGradient
       id="Gradient20"
       gradientUnits="userSpaceOnUse"
       x1="1236.15"
       y1="574.737"
       x2="1321.01"
       y2="454.19299">
      <stop
         class="stop0"
         offset="0"
         stop-opacity="1"
         stop-color="rgb(248,228,172)"
         id="stop39" />
      <stop
         class="stop1"
         offset="1"
         stop-opacity="1"
         stop-color="rgb(255,255,238)"
         id="stop40" />
    </linearGradient>
  </defs>
  <path
     fill="rgb(255,253,241)"
     d="M 0,0 H 1440 V 1024 H 0 Z"
     id="path40"
     style="fill:#f8f8f8;fill-opacity:0" />
  <path
     fill="#ecd091"
     d="m 1246.28,426.269 c 8.67,-6.351 41.56,-7.928 50.28,-3.931 0.44,1.578 0.51,2.955 1.5,3.897 43.57,13.569 74.16,33.546 84.2,81.283 2.4,20.335 4.24,48.749 -5.92,67.482 -9.1,20.896 -18.46,35.742 -39.48,47.366 -41.81,27.013 -77.32,28.33 -120.99,4.032 -6.07,-2.85 -15.21,-10.773 -19.59,-15.874 -7.15,-4.471 -11.69,-0.891 -17.41,4.376 -31.62,29.119 -66.5,53.923 -98.13,83.036 -4.58,4.22 -14.78,11.123 -18.14,15.449 l -2.06,1.822 c -3.59,-1.172 -6.62,-5.945 -9.13,-9.119 l -0.64,-1.165 3.08,-2.335 c -2.72,-1.067 -4,-2.839 -4.39,-5.517 0.58,-1.212 36.57,-30.43 40.44,-35.315 6.74,-6.088 18.74,-12.1 24.83,-18.303 21.03,-21.439 42.42,-31.684 62.33,-54.814 -0.47,-4.272 -0.57,-2.752 1.71,-6.866 -4.88,-12.408 -7.73,-23.622 -15.86,-34.155 -3.72,-28.497 2.54,-49.241 14.82,-74.257 5.35,-1.103 13.7,-3.196 14.1,-10.125 l -1.49,-2.015 c 1.04,-1.342 0.9,-1.934 0.97,-3.627 0.75,-1.113 1.49,-1.795 2.41,-2.768 14.78,-10.739 11.76,-12.452 31.99,-21.899 7.37,-2.465 12.86,-3.676 20.57,-6.658 z"
     id="path43" />
  <path
     fill="url(#Gradient20)"
     d="m 1261.51,442.028 c 18.64,0.099 58.26,2.186 70.78,17.628 22.2,27.396 34.8,50.52 25.93,86.128 l -3.35,0.017 c -8.85,16.995 -8.11,24.82 -30.65,30.586 -2.86,3.187 -23.08,7.853 -27.78,8.886 -13.94,3.066 -27.66,1.651 -41.36,-1.806 -9.41,-3.766 -17.27,-7.353 -25.67,-13.08 -22.35,-21.469 -23.73,-52.226 -15.1,-80.694 1.27,-4.198 6.86,-13.142 6.08,-16.428 -2.98,2.96 -8.11,16.795 -9.95,21.405 l -1.57,-1.136 c -0.33,-8.093 -1.31,-14.798 -1.35,-22.938 8.9,-9.959 16.13,-12.769 25.7,-20.989 10.5,-3.678 17.39,-5.588 28.29,-7.579 z"
     id="path44"
     style="fill:url(#Gradient20)" />
  <path
     fill="#efdba7"
     d="m 1229.41,570.387 c 2.47,-0.932 3.33,-1.101 5.93,-1.539 14.82,7.033 27.79,14.215 44.87,12.054 6.74,-0.853 12.3,-2.753 19.45,-1.672 0.81,0.122 28.54,-13.497 30.21,-15.403 l 0.5,-0.559 c 7.05,-8.069 10.46,-20.775 12.85,-23.514 -1.85,6.903 -3.04,11.613 -4.15,18.655 -5.01,5.631 -10.81,11.122 -15.51,16.63 l 0.66,1.348 c -2.86,3.187 -23.08,7.853 -27.78,8.886 -13.94,3.066 -27.66,1.651 -41.36,-1.806 -9.41,-3.766 -17.27,-7.353 -25.67,-13.08 z"
     id="path45" />
  <path
     fill="#915910"
     d="m 1382.26,507.518 c 2.4,20.335 4.24,48.749 -5.92,67.482 -9.1,20.896 -18.46,35.742 -39.48,47.366 -41.81,27.013 -77.32,28.33 -120.99,4.032 -6.07,-2.85 -15.21,-10.773 -19.59,-15.874 -7.15,-4.471 -11.69,-0.891 -17.41,4.376 -31.62,29.119 -66.5,53.923 -98.13,83.036 -4.58,4.22 -14.78,11.123 -18.14,15.449 l -2.06,1.822 c -3.59,-1.172 -6.62,-5.945 -9.13,-9.119 l -0.64,-1.165 3.08,-2.335 c -2.72,-1.067 -4,-2.839 -4.39,-5.517 0.58,-1.212 36.57,-30.43 40.44,-35.315 6.74,-6.088 18.74,-12.1 24.83,-18.303 21.03,-21.439 42.42,-31.684 62.33,-54.814 -0.47,-4.272 -0.57,-2.752 1.71,-6.866 0.05,0.035 14.77,2.95 15.3,2.971 l 2.94,-1.579 c 9.24,11.153 16.72,22.084 30.71,27.693 19.66,7.88 39.41,11.18 60.39,7.817 12.95,-1.338 35.8,-7.028 45.21,-16.085 20.08,-19.334 36.72,-31.763 39.69,-60.519 l 0.7,-10.557 c 0.13,-3.501 -0.39,-11.345 1.21,-13.585 l 2.24,0.748 1.82,0.885 c 1.67,-2.258 1.21,-5.236 1.35,-8.506 z"
     id="path49" />
  <path
     fill="#d19a35"
     d="m 1382.26,507.518 c 2.4,20.335 4.24,48.749 -5.92,67.482 -9.1,20.896 -18.46,35.742 -39.48,47.366 -41.81,27.013 -77.32,28.33 -120.99,4.032 -6.07,-2.85 -15.21,-10.773 -19.59,-15.874 -1.49,-3.864 -1.86,-3.144 -1.18,-6.721 4.23,-1.377 8.93,4.005 12.46,6.78 31.99,25.136 101.02,26.009 132.17,-0.246 22.28,-18.786 34.97,-40.639 37.5,-69.402 -1.17,-0.923 -1.6,-1.811 -2.47,-3.065 l -1.75,4.201 0.7,-10.557 c 0.13,-3.501 -0.39,-11.345 1.21,-13.585 l 2.24,0.748 1.82,0.885 c 1.67,-2.258 1.21,-5.236 1.35,-8.506 z"
     id="path50" />
  <path
     fill="#915910"
     d="m 1215.87,626.398 c 10.01,-2.333 52.25,22.504 75.61,12.263 12.26,-5.38 29.09,-10.611 43.21,-17.639 l 2.17,1.344 c -41.81,27.013 -77.32,28.33 -120.99,4.032 z"
     id="path51" />
  <path
     fill="#ad7e35"
     d="m 1382.26,507.518 c 2.4,20.335 4.24,48.749 -5.92,67.482 l -1.19,-1 c 2.51,-6.043 6.31,-26.692 4.11,-33.178 l -2.03,0.113 c -1.17,-0.923 -1.6,-1.811 -2.47,-3.065 l -1.75,4.201 0.7,-10.557 c 0.13,-3.501 -0.39,-11.345 1.21,-13.585 l 2.24,0.748 1.82,0.885 c 1.67,-2.258 1.21,-5.236 1.35,-8.506 z"
     id="path52" />
  <path
     fill="#faeb7e"
     d="m 1177.06,588.639 c 3.89,-3.149 9.33,-5.747 13.5,-1.613 -1.96,11.107 -40.39,36.262 -49.74,45.53 -15.31,15.161 -30.15,25.911 -47.22,38.381 -14,10.232 -20.78,26.497 -39.75,31.651 -2.72,-1.067 -4,-2.839 -4.39,-5.517 0.58,-1.212 36.57,-30.43 40.44,-35.315 6.74,-6.088 18.74,-12.1 24.83,-18.303 21.03,-21.439 42.42,-31.684 62.33,-54.814 z"
     id="path53" />
  <path
     fill="#faeb7e"
     d="m 1246.28,426.269 c 8.67,-6.351 41.56,-7.928 50.28,-3.931 0.44,1.578 0.51,2.955 1.5,3.897 -3.01,1.242 -5.99,2.596 -9.14,3.399 l -3.38,0.384 -0.99,0.206 c -5.81,1.158 -12.02,1.169 -17.96,1.352 l -0.25,0.993 c 3.43,-0.588 6.93,-0.454 10.4,-0.457 l 0.3,0.611 c -4.3,1.341 -7.41,2.021 -11.85,2.918 4.83,0.433 10.59,-0.092 15.15,1.181 -4.94,0.087 -14.96,0.036 -19.4,0.758 2.35,0.968 1.67,0.293 2.73,2.36 l 0.37,-0.851 0.58,0.933 c -1.89,0.832 -2.21,0.586 -3.11,2.006 -10.9,1.991 -17.79,3.901 -28.29,7.579 -16.09,4.531 -24.83,15.233 -32.52,29.207 -11.22,20.393 -16.04,35.743 -10.27,58.548 -0.61,1.831 -0.67,2.486 -0.39,4.398 l -1.29,1.007 c -2.49,-1.258 -2.76,-1.61 -4.57,-3.763 7.92,23.819 25.79,49.523 48.69,61.291 12.7,6.528 18.47,5.871 30.65,8.598 -1.68,0.051 -5.99,-0.048 -7.21,0.579 12.2,2.806 26.44,-3.314 31.8,9.203 -20.98,3.363 -40.73,0.063 -60.39,-7.817 -13.99,-5.609 -21.47,-16.54 -30.71,-27.693 l -2.94,1.579 c -0.53,-0.021 -15.25,-2.936 -15.3,-2.971 -4.88,-12.408 -7.73,-23.622 -15.86,-34.155 -3.72,-28.497 2.54,-49.241 14.82,-74.257 5.35,-1.103 13.7,-3.196 14.1,-10.125 l -1.49,-2.015 c 1.04,-1.342 0.9,-1.934 0.97,-3.627 0.75,-1.113 1.49,-1.795 2.41,-2.768 14.78,-10.739 11.76,-12.452 31.99,-21.899 7.37,-2.465 12.86,-3.676 20.57,-6.658 z"
     id="path54" />
  <path
     fill="url(#Gradient19)"
     d="m 1191.83,463.236 2.79,1.049 c -19.43,27.983 -25.73,40.001 -20.22,76.996 3.1,20.763 9.05,27.299 22.61,41.884 l -2.94,1.579 c -0.53,-0.021 -15.25,-2.936 -15.3,-2.971 -4.88,-12.408 -7.73,-23.622 -15.86,-34.155 -3.72,-28.497 2.54,-49.241 14.82,-74.257 5.35,-1.103 13.7,-3.196 14.1,-10.125 z"
     id="path55"
     style="fill:url(#Gradient19)" />
  <path
     fill="#9f6f27"
     d="m 1184.18,539.004 c -10.38,-24.891 3.32,-49.543 16.98,-69.305 17.01,-24.592 31.69,-26.542 59.78,-32.119 2.35,0.968 1.67,0.293 2.73,2.36 l 0.37,-0.851 0.58,0.933 c -1.89,0.832 -2.21,0.586 -3.11,2.006 -10.9,1.991 -17.79,3.901 -28.29,7.579 -16.09,4.531 -24.83,15.233 -32.52,29.207 -11.22,20.393 -16.04,35.743 -10.27,58.548 -0.61,1.831 -0.67,2.486 -0.39,4.398 l -1.29,1.007 c -2.49,-1.258 -2.76,-1.61 -4.57,-3.763 z"
     id="path56" />
  <path
     fill="#c49d54"
     d="m 1246.28,426.269 c 8.67,-6.351 41.56,-7.928 50.28,-3.931 0.44,1.578 0.51,2.955 1.5,3.897 -3.01,1.242 -5.99,2.596 -9.14,3.399 l -3.38,0.384 c -11.22,-0.059 -22.44,0.143 -33.65,0.604 -2.06,-2.757 -2.35,-3.077 -5.61,-4.353 z"
     id="path57" />
  <path
     fill="#9f6f27"
     d="m 1193.72,454.826 c 14.78,-10.739 11.76,-12.452 31.99,-21.899 l 2.61,4.42 c -14.48,6.468 -23.22,15.034 -33.7,26.938 l -2.79,-1.049 -1.49,-2.015 c 1.04,-1.342 0.9,-1.934 0.97,-3.627 0.75,-1.113 1.49,-1.795 2.41,-2.768 z"
     id="path58" />
  <path
     fill="#ad7e35"
     d="m 1246.28,426.269 c 3.26,1.276 3.55,1.596 5.61,4.353 -7.92,2.877 -15.15,5.757 -23.57,6.725 l -2.61,-4.42 c 7.37,-2.465 12.86,-3.676 20.57,-6.658 z"
     id="path59" />
  <path
     fill="#fffdf1"
     d="m 1298.06,426.235 c 43.57,13.569 74.16,33.546 84.2,81.283 l -1.93,3.538 c -0.14,3.27 0.32,6.248 -1.35,8.506 l -1.82,-0.885 -2.24,-0.748 c -1.6,2.24 -1.08,10.084 -1.21,13.585 -1.99,-13.221 0.22,-19.642 -3.82,-35.416 l -1.42,2.267 -5.59,0.951 c -2.63,-6.751 -17.6,-28.273 -22.53,-35.313 -11.94,-17.075 -40.1,-24.501 -60.01,-27.181 -4.56,-1.273 -10.32,-0.748 -15.15,-1.181 4.44,-0.897 7.55,-1.577 11.85,-2.918 l -0.3,-0.611 c -3.47,0.003 -6.97,-0.131 -10.4,0.457 l 0.25,-0.993 c 5.94,-0.183 12.15,-0.194 17.96,-1.352 l 0.99,-0.206 3.38,-0.384 c 3.15,-0.803 6.13,-2.157 9.14,-3.399 z"
     id="path60" />
  <path
     fill="#9d8757"
     d="m 1298.06,426.235 c 43.57,13.569 74.16,33.546 84.2,81.283 l -1.93,3.538 c -0.14,3.27 0.32,6.248 -1.35,8.506 l -1.82,-0.885 -2.24,-0.748 c -1.6,2.24 -1.08,10.084 -1.21,13.585 -1.99,-13.221 0.22,-19.642 -3.82,-35.416 -3.6,-14.19 -6.88,-26.256 -17.08,-37.219 -17.2,-18.495 -38.8,-28.061 -63.89,-29.245 3.15,-0.803 6.13,-2.157 9.14,-3.399 z"
     id="path61" />
  <path
     fill="#ecd091"
     d="m 1377.16,518.677 c 0.16,-5.161 -3.91,-12.682 -2.36,-19.398 l 1.6,-0.707 c 1.82,1.782 3.21,9.514 3.93,12.484 -0.14,3.27 0.32,6.248 -1.35,8.506 z"
     id="path62" />
  <path
     fill="url(#Gradient18)"
     d="m 1369.89,496.098 c 4.04,15.774 1.83,22.195 3.82,35.416 l -0.7,10.557 c -2.97,28.756 -19.61,41.185 -39.69,60.519 -9.41,9.057 -32.26,14.747 -45.21,16.085 -5.36,-12.517 -19.6,-6.397 -31.8,-9.203 1.22,-0.627 5.53,-0.528 7.21,-0.579 38.97,0.186 56.98,-3.768 83.65,-35.106 22.26,-26.161 18.41,-42.984 15.71,-74.471 l 5.59,-0.951 z"
     id="path63"
     style="fill:url(#Gradient18)" />
  <path
     fill="#ad7e35"
     d="m 1280.34,436.822 c 19.91,2.68 48.07,10.106 60.01,27.181 4.93,7.04 19.9,28.562 22.53,35.313 2.7,31.487 6.55,48.31 -15.71,74.471 -26.67,31.338 -44.68,35.292 -83.65,35.106 -12.18,-2.727 -17.95,-2.07 -30.65,-8.598 -22.9,-11.768 -40.77,-37.472 -48.69,-61.291 1.81,2.153 2.08,2.505 4.57,3.763 l 1.29,-1.007 c -0.28,-1.912 -0.22,-2.567 0.39,-4.398 4.02,6.382 5.11,18.171 8.63,24.795 20.23,38.129 76.12,58.166 113.98,35.126 25.6,-16.243 32.8,-23.231 45.18,-51.499 8.87,-35.608 -3.73,-58.732 -25.93,-86.128 -12.52,-15.442 -52.14,-17.529 -70.78,-17.628 0.9,-1.42 1.22,-1.174 3.11,-2.006 l -0.58,-0.933 -0.37,0.851 c -1.06,-2.067 -0.38,-1.392 -2.73,-2.36 4.44,-0.722 14.46,-0.671 19.4,-0.758 z"
     id="path64" />
  <path
     fill="url(#Gradient17)"
     d="m 775.383,324.851 c 7.434,17.945 14.359,39.324 24.023,56.156 16.733,29.141 29.001,59.05 43.861,89.035 4.188,8.451 10.368,16.55 14.641,25.025 7.438,17.317 15.384,33.466 23.33,50.418 6.184,13.192 14.817,24.864 20.327,36.264 13.196,27.304 21.169,50.289 39.136,75.751 l 1.291,-2.622 c 3.367,2.907 32.129,0.625 38.875,2.641 2.164,0.646 8.521,0.629 11.615,1.424 l -1.872,3.113 c -25.358,-1.811 -40.992,-3.127 -66.613,2.102 -2.004,-1.668 -4.151,-1.88 -6.745,-2.481 0.019,-2.353 -3.987,-9.698 -5.309,-12.265 -4.23,-8.209 -7.571,-19.017 -12.149,-26.723 -15.716,-26.458 -28.238,-54.094 -40.728,-82.151 -7.331,-13.373 -14.508,-26.548 -21.637,-40.048 -9.564,-18.11 -15.984,-38.036 -26.61,-55.453 -8.908,-12.941 -12.03,-23.934 -19.854,-37.784 -9.941,-17.596 -14.73,-45.462 -31.135,-57.509 -1.536,-1.127 -5.537,1.084 -7.314,1.801 l -1.916,-2.619 c 1.694,-0.75 2.769,-1.55 4.31,-2.582 1.35,-3.998 0.811,-3.23 -0.163,-7.917 5.592,-1.442 12.092,-1.679 13.426,-7.528 l 0.108,-3.342 c 2.524,-2.382 3.142,-1.847 7.102,-2.706 z"
     id="path65"
     style="fill:url(#Gradient17)" />
  <path
     fill="#faeb7e"
     d="m 775.383,324.851 c 7.434,17.945 14.359,39.324 24.023,56.156 16.733,29.141 29.001,59.05 43.861,89.035 4.188,8.451 10.368,16.55 14.641,25.025 7.438,17.317 15.384,33.466 23.33,50.418 6.184,13.192 14.817,24.864 20.327,36.264 13.196,27.304 21.169,50.289 39.136,75.751 l -14.395,0.132 c -7.319,-13.718 -13.801,-31.095 -20.953,-45.861 L 852.532,504.924 c -3.587,-7.355 -10.645,-14.777 -13.108,-20.22 -6.599,-15.691 -13.129,-30.735 -20.55,-46.094 -6.323,-13.087 -12.823,-24.525 -20.584,-36.781 -3.735,-5.899 -6.513,-17.759 -9.971,-24.35 -7.436,-14.175 -12.817,-32.924 -20.146,-46.58 l 0.108,-3.342 c 2.524,-2.382 3.142,-1.847 7.102,-2.706 z"
     id="path66" />
  <path
     fill="#7e6b3d"
     d="m 801.962,288.135 c 2.474,-2.707 1.299,-2.179 4.357,-2.499 2.573,1.582 4.102,2.832 7.164,2.95 -9.6,18.025 -17.861,29.111 -32.013,43.582 5.37,23.739 26.103,57.681 37.034,79.852 6.13,12.432 11.192,25.16 17.283,37.789 7.827,16.23 17.633,31.836 25.476,47.589 l 44.585,88.673 c 12.963,26.377 18.063,43.209 36.144,68.807 l -1.291,2.622 c -17.967,-25.462 -25.94,-48.447 -39.136,-75.751 -5.51,-11.4 -14.143,-23.072 -20.327,-36.264 -7.946,-16.952 -15.892,-33.101 -23.33,-50.418 -4.273,-8.475 -10.453,-16.574 -14.641,-25.025 -14.86,-29.985 -27.128,-59.894 -43.861,-89.035 -9.664,-16.832 -16.589,-38.211 -24.023,-56.156 l 3.523,-1.86 c 11.922,-10.995 16.406,-20.598 23.056,-34.856 z"
     id="path67" />
  <path
     fill="#d19a35"
     d="m 801.962,288.135 c 9.116,6.587 -13.18,35.597 -20.924,37.17 -1.255,-0.982 -1.393,-0.932 -2.132,-2.314 11.922,-10.995 16.406,-20.598 23.056,-34.856 z"
     id="path68" />
  <path
     fill="#9d8757"
     d="m 1162.91,547.618 c 8.13,10.533 10.98,21.747 15.86,34.155 -2.28,4.114 -2.18,2.594 -1.71,6.866 -19.91,23.13 -41.3,33.375 -62.33,54.814 -6.09,6.203 -18.09,12.215 -24.83,18.303 -3.87,4.885 -39.86,34.103 -40.44,35.315 0.39,2.678 1.67,4.45 4.39,5.517 l -3.08,2.335 c -2.46,-1.494 -4.04,-5.186 -6.22,-7.78 -11.91,-14.21 -20.69,-25.935 -39.4,-30.713 -5.71,-2.644 -8.465,-3.082 -14.54,-4.374 l 1.872,-3.113 c 27.808,7.641 35.888,14.849 53.748,35.267 15.59,-9.643 25.3,-19.59 39.02,-31.406 6.9,-6.926 19.23,-12.706 25.83,-19.39 15.13,-15.32 31.15,-26.478 48.21,-39.25 4.71,-3.523 12.47,-12.918 15.45,-17.908 -6.32,-13.604 -10.7,-23.54 -11.83,-38.638 z"
     id="path69" />
  <path
     fill="#ecd091"
     d="m 157.947,456.156 c 23.843,-9.304 61.519,-10.962 85.17,0.203 16.163,7.631 25.212,15.742 36.768,29.42 l 5.864,8.655 c 0.868,6.241 3.127,20.944 5.751,26.546 2.086,13.088 2.819,20.08 1.892,33.262 3.953,2.139 3.41,3.657 3.892,8.041 -2.201,12.205 -6.317,23.986 -12.197,34.906 2.873,3.785 2.006,2.666 7.311,4.255 5.248,6.311 19.604,13.953 26.777,19.928 8.198,6.83 17.797,16.952 26.054,22.916 21.891,15.81 41.482,34.083 62.126,50.961 16.408,-16.341 36.694,-35.222 61.409,-36.875 l -0.545,1.56 -3.307,1.071 0.021,0.796 1.739,-0.547 c 1.793,1.544 0.78,1.163 3.132,1.195 23.209,-2.94 54.684,-6.099 76.064,5.876 14.663,4.098 26.523,16.092 35.045,28.356 10.27,12.779 8.323,33.588 15.03,41.041 3.305,-2.044 2.034,-6.038 4.881,-8.111 3.907,5.405 -0.179,8.836 0.139,14.519 2.951,4.694 2.802,7.549 3.13,13.123 -0.224,3.47 -2.033,18.604 -1.937,19.988 3.955,0.177 3.674,-0.426 6.778,2.966 l 0.431,0.48 c -1.426,22.441 -10.787,36.709 -25.842,52.249 -5.232,5.116 -10.662,13.057 -16.454,17.493 -22.078,16.91 -50.37,21.301 -77.168,21.247 -34.541,-0.071 -79.885,-25.423 -93.339,-58.501 -1.537,-2.428 -2.309,-6.072 -3.109,-8.932 l -6.89,-18.894 -2.029,-4.477 c -4.042,-8.444 -3.832,-29.716 -0.152,-38.298 2.233,-2.403 3.075,-5.511 4.268,-8.646 1.939,-4.735 5.085,-16.296 6.716,-21.657 -7.106,-5.688 -18.577,-11.468 -24.631,-17.416 -16.411,-16.12 -32.768,-28.221 -51.264,-41.83 -13.07,-9.617 -25.413,-22.386 -38.705,-32.314 -2.823,3.268 -13.533,14.866 -16.816,16.739 -33.171,23.21 -88.333,25.114 -122.039,2.381 -3.379,-2.279 -6.665,-4.931 -9.804,-7.536 -4.995,-2.826 -19.091,-15.648 -21.573,-21.099 C 100,601.319 92.8117,570.843 93.0101,556.371 c -2.0588,-31.429 5.0107,-59.708 29.2349,-80.68 2.278,-0.957 9.398,-5.158 10.765,-5.051 l 1.449,1.281 c -1.029,1.502 -1.117,1.397 -2.768,2.015 l 0.836,1.208 c 3.857,-1.663 13.215,-12.89 25.42,-18.988 z"
     id="path71" />
  <path
     fill="#9f6f27"
     d="m 157.947,456.156 c 23.843,-9.304 61.519,-10.962 85.17,0.203 16.163,7.631 25.212,15.742 36.768,29.42 l 5.864,8.655 c 0.868,6.241 3.127,20.944 5.751,26.546 2.086,13.088 2.819,20.08 1.892,33.262 -0.687,8.445 -1.389,15.355 -5.866,22.933 -0.087,0.376 -0.173,0.752 -0.26,1.127 -16.859,49.503 -82.85,62.798 -125.61,47.242 -53.24,-19.368 -69.5365,-70.956 -52.58,-120.873 2.887,-8.502 10.603,-20.96 18.869,-24.741 l 4.582,-4.786 c 3.857,-1.663 13.215,-12.89 25.42,-18.988 z"
     id="path72" />
  <path
     fill="#faeb7e"
     d="m 132.527,475.144 c 3.857,-1.663 13.215,-12.89 25.42,-18.988 2.937,1.99 2.785,1.179 3.338,3.74 l -1.599,4.71 c -5.105,3.403 -9.897,7.338 -14.713,11.148 -5.588,6.117 -14.299,11.94 -20.217,17.482 -11.148,10.44 -14.464,34.616 -13.684,48.964 2.723,50.084 46.822,83.575 95.98,78.725 22.998,-2.269 37.28,-7.322 56.122,-22.184 2.841,-2.297 6.943,-11.625 10.18,-14.689 8.079,-4.475 6.121,-12.475 10.103,-16.684 2.958,-0.201 1.811,-0.339 4.993,1.992 -0.68,3.322 -0.802,4.422 -0.924,7.815 -0.087,0.376 -0.173,0.752 -0.26,1.127 -16.859,49.503 -82.85,62.798 -125.61,47.242 -53.24,-19.368 -69.5365,-70.956 -52.58,-120.873 2.887,-8.502 10.603,-20.96 18.869,-24.741 z"
     id="path73" />
  <path
     fill="url(#Gradient16)"
     d="m 157.947,456.156 c 23.843,-9.304 61.519,-10.962 85.17,0.203 16.163,7.631 25.212,15.742 36.768,29.42 l 5.864,8.655 c 0.868,6.241 3.127,20.944 5.751,26.546 2.086,13.088 2.819,20.08 1.892,33.262 -0.687,8.445 -1.389,15.355 -5.866,22.933 0.122,-3.393 0.244,-4.493 0.924,-7.815 -3.182,-2.331 -2.035,-2.193 -4.993,-1.992 -3.982,4.209 -2.024,12.209 -10.103,16.684 14.03,-24.337 14.838,-48.35 5.475,-74.763 -5.805,-17.863 -17.45,-24.469 -31.134,-34.868 -26.63,-20.238 -56.216,-21.793 -88.009,-9.815 l 1.599,-4.71 c -0.553,-2.561 -0.401,-1.75 -3.338,-3.74 z"
     id="path74"
     style="fill:url(#Gradient16)" />
  <path
     fill="#fffdf1"
     d="m 161.233,471.315 c 54.257,-24.133 124.295,9.152 119.673,72.427 0.734,35.516 -25.306,67.222 -60.192,73.394 -5.928,2.072 -24.257,2.264 -31.246,1.443 -28.793,-3.385 -37.797,-9.872 -55.519,-31.536 -15.275,-18.674 -20.308,-28.534 -18.005,-53.415 1.208,-30.464 18.809,-49.265 45.289,-62.313 z"
     id="path75" />
  <path
     fill="#ecd091"
     d="m 115.944,533.628 c 1.208,-30.464 18.809,-49.265 45.289,-62.313 -3.853,7.148 -9.656,6.633 -11.933,12.435 l 0.916,1.248 3.494,0.07 c 0.879,5.12 -9.16,21.584 -9.109,26.79 0.194,19.834 -4.037,52.158 16.593,63.41 -0.126,-0.069 2.289,11.623 8.309,12.664 10.853,8.049 17.491,9.073 28.518,13.503 16.466,0.65 29.125,-0.772 40.683,-13.251 -4.632,1.74 -9.123,3.634 -14.009,4.42 l -0.476,-1.011 c 3.491,-2.725 9.548,-3.099 13.13,-4.255 1.275,-1.503 6.691,-9.2 7.864,-9.867 16.101,-9.15 14.86,-4.549 23.289,-21.982 1,0.298 1.182,0.866 1.996,1.821 0.457,4.144 -0.272,5.327 -1.928,9.211 1.772,-0.955 4.434,-1.634 6.081,-2.696 6.251,-4.032 3.741,-13.311 6.255,-20.083 0.734,35.516 -25.306,67.222 -60.192,73.394 -5.928,2.072 -24.257,2.264 -31.246,1.443 -28.793,-3.385 -37.797,-9.872 -55.519,-31.536 -15.275,-18.674 -20.308,-28.534 -18.005,-53.415 z"
     id="path76" />
  <path
     fill="url(#Gradient15)"
     d="m 115.944,533.628 0.608,0.67 c 6.74,7.52 3.958,13.46 7.213,22.304 2.405,6.535 9.687,13.807 12.808,19.698 22.72,42.888 45.416,33.965 87.521,37.555 -0.525,1.858 -1.444,1.952 -3.38,3.281 -5.928,2.072 -24.257,2.264 -31.246,1.443 -28.793,-3.385 -37.797,-9.872 -55.519,-31.536 -15.275,-18.674 -20.308,-28.534 -18.005,-53.415 z"
     id="path77"
     style="fill:url(#Gradient15)" />
  <path
     fill="#efdba7"
     d="m 238.704,588.184 c -4.632,1.74 -9.123,3.634 -14.009,4.42 l -0.476,-1.011 c 3.491,-2.725 9.548,-3.099 13.13,-4.255 1.275,-1.503 6.691,-9.2 7.864,-9.867 16.101,-9.15 14.86,-4.549 23.289,-21.982 1,0.298 1.182,0.866 1.996,1.821 0.457,4.144 -0.272,5.327 -1.928,9.211 -5.358,11.314 -31.931,31.474 -43.372,35.63 -15.596,5.664 -32.004,4.304 -46.683,-3.234 -2.57,-1.319 -4.434,-1.682 -5.746,-4.167 5.938,-1.398 19.41,12.28 25.252,6.685 16.466,0.65 29.125,-0.772 40.683,-13.251 z"
     id="path78" />
  <path
     fill="url(#Gradient14)"
     d="m 483.267,673.735 c 9.514,-1.744 28.884,-0.953 38.243,1.653 38.086,20.351 54.822,24.465 61.946,72.039 -6.878,12.994 4.717,21.345 -10.343,27.404 -4.408,8.765 -13.224,18 -19.912,24.48 -30.834,29.872 -76.882,26.368 -104.048,-6.69 -14.074,-17.126 -17.552,-28.955 -15.782,-51.845 0.956,-12.349 1.497,-26.296 11.387,-35.4 2.982,-2.556 8.302,-6.061 12.389,-5.815 1.061,-5.212 4.731,-13.916 6.788,-19.183 6.306,-2.601 13.713,-3.012 19.332,-6.643 z"
     id="path86"
     style="fill:url(#Gradient14)" />
  <path
     fill="#efdba7"
     d="m 457.147,699.561 c 3.777,-1.447 21,-8.008 23.987,-7.154 -2.65,1.386 -9.88,2.958 -12.857,3.982 -20.64,7.101 -24,12.484 -24.349,33.649 -0.051,3.086 -1.543,7.373 -1.838,10.546 0.333,13.654 1.028,30.015 7.945,41.942 7.307,12.599 26.559,26.392 40.103,29.391 20.985,4.647 41.334,1.412 54.588,-16.309 2.545,-3.403 13.363,-8.658 15.966,-12.937 2.196,-2.495 5.306,-9.513 6.702,-12.799 l 1.004,0.273 -0.134,-2.511 c 0.554,3.08 1.551,5.972 4.849,7.197 -4.408,8.765 -13.224,18 -19.912,24.48 -30.834,29.872 -76.882,26.368 -104.048,-6.69 -14.074,-17.126 -17.552,-28.955 -15.782,-51.845 0.956,-12.349 1.497,-26.296 11.387,-35.4 2.982,-2.556 8.302,-6.061 12.389,-5.815 z"
     id="path87" />
  <path
     fill="#915910"
     d="m 122.245,475.691 c 2.278,-0.957 9.398,-5.158 10.765,-5.051 l 1.449,1.281 c -1.029,1.502 -1.117,1.397 -2.768,2.015 l 0.836,1.208 -4.582,4.786 c -8.266,3.781 -15.982,16.239 -18.869,24.741 -16.9565,49.917 -0.66,101.505 52.58,120.873 42.76,15.556 108.751,2.261 125.61,-47.242 0.087,-0.375 0.173,-0.751 0.26,-1.127 4.477,-7.578 5.179,-14.488 5.866,-22.933 3.953,2.139 3.41,3.657 3.892,8.041 -2.201,12.205 -6.317,23.986 -12.197,34.906 2.873,3.785 2.006,2.666 7.311,4.255 5.248,6.311 19.604,13.953 26.777,19.928 8.198,6.83 17.797,16.952 26.054,22.916 21.891,15.81 41.482,34.083 62.126,50.961 l -2.871,0.196 c -0.081,2.804 0.024,4.151 -0.828,6.873 l 3.444,0.165 c -0.202,1.633 -0.309,2.994 -0.41,4.635 -11.402,26.828 -15.167,54.108 -3.847,81.635 2.72,6.612 7.675,18.14 12.316,23.468 2.297,1.082 3.454,1.894 5.514,3.306 l 2.602,-0.667 c 1.285,-2.806 -1.012,-9.671 -1.828,-12.907 3.079,3.206 5.321,5.478 7.946,9.104 22.304,21.187 34.589,23.276 64.156,25.023 4.764,0.356 15.06,0.052 18.153,3.631 -2.565,3.707 -2.256,2.209 -2.295,6.437 1.368,0.434 2.289,0.601 3.498,1.35 18.298,-2.954 48.233,-14.684 60.98,-29.115 3.855,-4.365 7.61,-13.076 11.139,-18.302 l 0.298,-0.434 c 4.72,-1.335 6.178,-10.375 10.431,-12.438 1.226,3.49 0.358,4.735 -0.121,8.65 3.989,-6.762 4.883,-11.173 6.524,-18.618 3.955,0.177 3.674,-0.426 6.778,2.966 l 0.431,0.48 c -1.426,22.441 -10.787,36.709 -25.842,52.249 -5.232,5.116 -10.662,13.057 -16.454,17.493 -22.078,16.91 -50.37,21.301 -77.168,21.247 -34.541,-0.071 -79.885,-25.423 -93.339,-58.501 -1.537,-2.428 -2.309,-6.072 -3.109,-8.932 l -6.89,-18.894 -2.029,-4.477 c -4.042,-8.444 -3.832,-29.716 -0.152,-38.298 2.233,-2.403 3.075,-5.511 4.268,-8.646 1.939,-4.735 5.085,-16.296 6.716,-21.657 -7.106,-5.688 -18.577,-11.468 -24.631,-17.416 -16.411,-16.12 -32.768,-28.221 -51.264,-41.83 -13.07,-9.617 -25.413,-22.386 -38.705,-32.314 -2.823,3.268 -13.533,14.866 -16.816,16.739 -33.171,23.21 -88.333,25.114 -122.039,2.381 -3.379,-2.279 -6.665,-4.931 -9.804,-7.536 -4.995,-2.826 -19.091,-15.648 -21.573,-21.099 C 100,601.319 92.8117,570.843 93.0101,556.371 c -2.0588,-31.429 5.0107,-59.708 29.2349,-80.68 z"
     id="path90" />
  <path
     fill="#d19a35"
     d="m 602.156,777.241 c 3.955,0.177 3.674,-0.426 6.778,2.966 l 0.431,0.48 c -1.426,22.441 -10.787,36.709 -25.842,52.249 -5.232,5.116 -10.662,13.057 -16.454,17.493 -22.078,16.91 -50.37,21.301 -77.168,21.247 -34.541,-0.071 -79.885,-25.423 -93.339,-58.501 -1.537,-2.428 -2.309,-6.072 -3.109,-8.932 l 1.297,-4.279 c 4.382,4.086 -0.7,9.436 7.905,12.15 12.117,18.792 41.197,41.774 63.387,46.602 32.744,7.125 65.358,2.472 93.368,-15.729 11.263,-7.318 20.665,-17.146 28.073,-28.343 3.488,-6.674 4.406,-11.188 8.734,-17.755 l -0.585,-1.03 c 3.989,-6.762 4.883,-11.173 6.524,-18.618 z"
     id="path91" />
  <path
     fill="#9f6f27"
     d="m 602.156,777.241 c 3.955,0.177 3.674,-0.426 6.778,2.966 l 0.431,0.48 c -1.426,22.441 -10.787,36.709 -25.842,52.249 -5.232,5.116 -10.662,13.057 -16.454,17.493 -22.078,16.91 -50.37,21.301 -77.168,21.247 -34.541,-0.071 -79.885,-25.423 -93.339,-58.501 2.11,0.854 13.252,15.055 15.722,17.867 32.632,37.161 80.848,44.744 126.754,30.127 22.273,-6.502 39.351,-25.639 53.454,-44.308 5.643,-5.845 4.164,-10.377 5.186,-18.247 l -1.461,-1.725 -0.585,-1.03 c 3.989,-6.762 4.883,-11.173 6.524,-18.618 z"
     id="path92" />
  <path
     fill="url(#Gradient13)"
     d="m 107.742,594.889 c 2.126,3.817 5.078,8.947 8.025,11.987 10.57,10.903 39.161,31.934 53.208,35.611 18.922,4.954 52.946,6.063 70.571,-3.787 11.373,-6.357 25.319,-16.59 36.529,-22.455 3.725,1.585 2.157,1.953 4.691,4.466 -2.823,3.268 -13.533,14.866 -16.816,16.739 -33.171,23.21 -88.333,25.114 -122.039,2.381 -3.379,-2.279 -6.665,-4.931 -9.804,-7.536 -4.995,-2.826 -19.091,-15.648 -21.573,-21.099 -3.333,-6.629 -6.902,-9.854 -2.792,-16.307 z"
     id="path93"
     style="fill:url(#Gradient13)" />
  <path
     fill="#915910"
     d="m 132.107,632.295 c 8.46,-0.133 18.836,10.943 26.941,13.406 31.912,9.698 62.476,10.172 92.777,-4.868 3.379,-1.678 8.453,-3.633 12.125,-3.383 -33.171,23.21 -88.333,25.114 -122.039,2.381 -3.379,-2.279 -6.665,-4.931 -9.804,-7.536 z"
     id="path94" />
  <path
     fill="#faeb7e"
     d="m 285.087,597.189 c 2.873,3.785 2.006,2.666 7.311,4.255 5.248,6.311 19.604,13.953 26.777,19.928 8.198,6.83 17.797,16.952 26.054,22.916 21.891,15.81 41.482,34.083 62.126,50.961 l -2.871,0.196 c -0.081,2.804 0.024,4.151 -0.828,6.873 -4.99,-0.412 -26.79,-14.573 -29.55,-18.22 -13.3,-17.571 -29.024,-25.2 -46.599,-37.676 -6.061,-4.302 -13.548,-15.561 -19.945,-20.101 -10.129,-7.189 -19.296,-10.543 -27.961,-20.188 -0.096,-3.122 0.71,-3.069 2.953,-6.103 0.862,-0.428 1.854,-1.968 2.533,-2.841 z"
     id="path95" />
  <path
     fill="#7e6b3d"
     d="m 285.087,597.189 c 2.873,3.785 2.006,2.666 7.311,4.255 5.248,6.311 19.604,13.953 26.777,19.928 8.198,6.83 17.797,16.952 26.054,22.916 21.891,15.81 41.482,34.083 62.126,50.961 l -2.871,0.196 c -5.498,-2.114 -14.197,-13.812 -18.946,-16.675 -20.205,-12.179 -86.427,-76.381 -102.984,-78.74 0.862,-0.428 1.854,-1.968 2.533,-2.841 z"
     id="path96" />
  <path
     fill="#faeb7e"
     d="m 421.447,801.953 c 3.079,3.206 5.321,5.478 7.946,9.104 22.304,21.187 34.589,23.276 64.156,25.023 4.764,0.356 15.06,0.052 18.153,3.631 -2.565,3.707 -2.256,2.209 -2.295,6.437 1.368,0.434 2.289,0.601 3.498,1.35 -17.019,4.143 -18.478,3.499 -35.491,0.249 -17.48,-3.339 -53.406,-20.404 -62.255,-35.526 2.297,1.082 3.454,1.894 5.514,3.306 l 2.602,-0.667 c 1.285,-2.806 -1.012,-9.671 -1.828,-12.907 z"
     id="path97" />
  <path
     fill="url(#Gradient12)"
     d="m 388.65,733.928 c 4.705,11.751 0.485,34.798 3.718,51.01 l -2.839,-1.029 -0.8,0.572 c -0.919,0.643 -1.023,0.734 -2.166,0.868 l -2.029,-4.477 c -4.042,-8.444 -3.832,-29.716 -0.152,-38.298 2.233,-2.403 3.075,-5.511 4.268,-8.646 z"
     id="path98"
     style="fill:url(#Gradient12)" />
  <path
     fill="#7e6b3d"
     d="m 384.382,742.574 c 0.791,4.76 2.115,34.341 0.152,38.298 -4.042,-8.444 -3.832,-29.716 -0.152,-38.298 z"
     id="path99" />
  <path
     fill="#c49d54"
     d="m 93.0101,556.371 c 2.9325,12.106 14.1109,34.264 14.7319,38.518 -4.11,6.453 -0.541,9.678 2.792,16.307 C 100,601.319 92.8117,570.843 93.0101,556.371 Z"
     id="path100" />
  <path
     fill="#c49d54"
     d="m 386.563,785.349 c 1.143,-0.134 1.247,-0.225 2.166,-0.868 l 0.8,-0.572 2.839,1.029 c 2.708,6.254 8.926,20.94 10.287,27.176 -8.605,-2.714 -3.523,-8.064 -7.905,-12.15 l -1.297,4.279 z"
     id="path101" />
  <path
     fill="url(#Gradient11)"
     d="m 407.355,695.249 c 16.408,-16.341 36.694,-35.222 61.409,-36.875 l -0.545,1.56 -3.307,1.071 0.021,0.796 1.739,-0.547 c 1.793,1.544 0.78,1.163 3.132,1.195 23.209,-2.94 54.684,-6.099 76.064,5.876 -13.861,0.137 -18.88,-10.421 -33.019,-0.983 l -1.141,-0.226 0.544,2.208 c 4.574,0.831 8.345,1.641 12.852,2.781 l -3.594,3.283 c -9.359,-2.606 -28.729,-3.397 -38.243,-1.653 -22.429,1.325 -46.756,18.781 -61.193,34.865 -17.259,19.228 -16.11,66.522 -1.081,86.267 l -2.307,2.822 2.761,4.264 c 0.816,3.236 3.113,10.101 1.828,12.907 l -2.602,0.667 c -2.06,-1.412 -3.217,-2.224 -5.514,-3.306 -4.641,-5.328 -9.596,-16.856 -12.316,-23.468 -11.32,-27.527 -7.555,-54.807 3.847,-81.635 0.101,-1.641 0.208,-3.002 0.41,-4.635 l -3.444,-0.165 c 0.852,-2.722 0.747,-4.069 0.828,-6.873 z"
     id="path102"
     style="fill:url(#Gradient11)" />
  <path
     fill="#9f6f27"
     d="m 418.686,797.689 c -17.513,-29.796 -21.542,-71.909 5.751,-98.241 30.349,-29.281 46.12,-31.842 87.815,-30.124 4.574,0.831 8.345,1.641 12.852,2.781 l -3.594,3.283 c -9.359,-2.606 -28.729,-3.397 -38.243,-1.653 -22.429,1.325 -46.756,18.781 -61.193,34.865 -17.259,19.228 -16.11,66.522 -1.081,86.267 z"
     id="path103" />
  <path
     fill="#9f6f27"
     d="m 407.355,695.249 c 16.408,-16.341 36.694,-35.222 61.409,-36.875 l -0.545,1.56 -3.307,1.071 0.021,0.796 1.739,-0.547 c 1.793,1.544 0.78,1.163 3.132,1.195 -27.202,5.715 -34.31,16.4 -55.259,34.56 -2.333,2.022 -6.451,9.325 -7.855,10.109 0.101,-1.641 0.208,-3.002 0.41,-4.635 l -3.444,-0.165 c 0.852,-2.722 0.747,-4.069 0.828,-6.873 z"
     id="path104" />
  <path
     fill="url(#Gradient10)"
     d="m 580.913,696.681 c 10.27,12.779 8.323,33.588 15.03,41.041 3.305,-2.044 2.034,-6.038 4.881,-8.111 3.907,5.405 -0.179,8.836 0.139,14.519 2.951,4.694 2.802,7.549 3.13,13.123 -0.224,3.47 -2.033,18.604 -1.937,19.988 -1.641,7.445 -2.535,11.856 -6.524,18.618 0.479,-3.915 1.347,-5.16 0.121,-8.65 -4.253,2.063 -5.711,11.103 -10.431,12.438 l -0.298,0.434 c -3.529,5.226 -7.284,13.937 -11.139,18.302 -12.747,14.431 -42.682,26.161 -60.98,29.115 -1.209,-0.749 -2.13,-0.916 -3.498,-1.35 0.039,-4.228 -0.27,-2.73 2.295,-6.437 -3.093,-3.579 -13.389,-3.275 -18.153,-3.631 34.184,-0.13 65.499,-7.835 82.562,-40.291 13.101,-24.92 13.677,-41.136 6.399,-67.959 4.532,-5.582 -1.013,-23.379 -1.597,-31.149 z"
     id="path105"
     style="fill:url(#Gradient10)" />
  <path
     fill="#6b4016"
     d="m 600.963,744.13 c 2.951,4.694 2.802,7.549 3.13,13.123 -0.224,3.47 -2.033,18.604 -1.937,19.988 -1.641,7.445 -2.535,11.856 -6.524,18.618 0.479,-3.915 1.347,-5.16 0.121,-8.65 -4.253,2.063 -5.711,11.103 -10.431,12.438 13.558,-28.691 14.067,-20.671 15.641,-55.517 z"
     id="path106" />
  <path
     fill="#ad7e35"
     d="m 512.252,669.324 -0.544,-2.208 1.141,0.226 c 14.139,-9.438 19.158,1.12 33.019,0.983 14.663,4.098 26.523,16.092 35.045,28.356 0.584,7.77 6.129,25.567 1.597,31.149 7.278,26.823 6.702,43.039 -6.399,67.959 -17.063,32.456 -48.378,40.161 -82.562,40.291 -29.567,-1.747 -41.852,-3.836 -64.156,-25.023 l 0.393,-3.664 1.129,-0.355 3.2,3.324 c 3.024,3.104 6.254,6.001 9.668,8.671 27.984,21.439 79.119,18.089 107.721,-0.433 21.911,-14.189 35.436,-45.561 31.952,-71.173 -7.124,-47.574 -23.86,-51.688 -61.946,-72.039 l 3.594,-3.283 c -4.507,-1.14 -8.278,-1.95 -12.852,-2.781 z"
     id="path107" />
  <path
     fill="url(#Gradient9)"
     d="m 512.252,669.324 -0.544,-2.208 1.141,0.226 c 14.139,-9.438 19.158,1.12 33.019,0.983 14.663,4.098 26.523,16.092 35.045,28.356 0.584,7.77 6.129,25.567 1.597,31.149 -1.497,-5.137 -2.982,-8.688 -4.999,-13.557 -6.927,-16.725 -36.221,-37.026 -52.407,-42.168 -4.507,-1.14 -8.278,-1.95 -12.852,-2.781 z"
     id="path108"
     style="fill:url(#Gradient9)" />
  <path
     fill="#c49d54"
     d="m 420.993,794.867 c 6.357,3.224 11.186,8.55 13.122,15.495 l -3.2,-3.324 -1.129,0.355 -0.393,3.664 c -2.625,-3.626 -4.867,-5.898 -7.946,-9.104 l -2.761,-4.264 z"
     id="path109" />
  <path
     fill="#9f6f27"
     d="m 658.915,138.376 c 8.152,-4.07 13.74,-4.119 21.526,-6.132 22.338,-5.52 38.085,-4.433 59.765,3.147 30.726,10.741 45.736,20.182 60.344,49.413 7.928,15.865 17.442,17.688 17.285,40.248 1.278,15.024 1.094,22.271 -0.257,37.277 -0.396,1.577 -0.507,2.843 -1.625,3.974 l -3.445,0.61 c -1.124,-5.136 -2.149,-14.072 -5.307,-17.171 -3.705,16.298 -5.939,22.533 -13.571,37.153 -3.256,4.911 -9.149,15.645 -12.649,19.358 -16.834,17.857 -43.879,26.441 -67.431,28.547 -31.534,3.089 -59.224,-7.225 -83.917,-26.824 -6.323,-5.019 -14.859,-19.756 -18.444,-26.723 -15.979,-31.051 -14.345,-71.091 3.841,-100.903 13.637,-23.827 21.865,-25.559 44.946,-37.674 6.782,-6.692 27.521,-8.617 36.925,-9.047 -8.443,-3.912 -30.141,6.168 -37.986,4.747 z"
     id="path110" />
  <path
     fill="url(#Gradient8)"
     d="m 776.205,180.662 c 16.738,22.968 21.469,62.384 10.996,88.333 -18.718,46.379 -74.331,62.978 -119.131,46.697 -14.951,-5.434 -42.778,-33.527 -48.038,-47.8 -16.68,-45.258 -1.411,-94.21 44.985,-113.175 15.112,-6.201 54.306,-9.162 68.594,-2.986 10.647,2.94 15.434,5.702 24.653,11.523 3.958,3.393 12.501,10.42 14.839,14.948 z"
     id="path111"
     style="fill:url(#Gradient8)" />
  <path
     fill="url(#Gradient7)"
     d="m 659.976,142.676 c 36.181,-11.555 67.631,-11.093 101.894,4.418 -7.849,4.54 -6.232,7.388 -11.086,7.856 -44.524,-22.757 -110.472,-12.565 -133.767,37.67 -22.998,49.595 4.058,112.238 57.021,128.123 6.75,2.024 14.21,2.55 21.387,3.242 l 0.989,0.216 c 9.423,2.021 17.111,-1.928 17.136,10.599 -31.534,3.089 -59.224,-7.225 -83.917,-26.824 -6.323,-5.019 -14.859,-19.756 -18.444,-26.723 -15.979,-31.051 -14.345,-71.091 3.841,-100.903 13.637,-23.827 21.865,-25.559 44.946,-37.674 z"
     id="path114"
     style="fill:url(#Gradient7)" />
  <path
     fill="#9d8757"
     d="m 658.915,138.376 c 8.152,-4.07 13.74,-4.119 21.526,-6.132 22.338,-5.52 38.085,-4.433 59.765,3.147 30.726,10.741 45.736,20.182 60.344,49.413 7.928,15.865 17.442,17.688 17.285,40.248 1.278,15.024 1.094,22.271 -0.257,37.277 -0.396,1.577 -0.507,2.843 -1.625,3.974 l -3.445,0.61 c -1.124,-5.136 -2.149,-14.072 -5.307,-17.171 l -0.008,-3.142 c 0.743,-17.031 -1.189,-36.551 -9.143,-51.871 l -0.017,0.785 c -0.113,6.294 2.79,11.264 -4.025,16.117 -3.937,-15.656 -6.517,-18.663 -14.725,-32.464 l -3.078,1.495 -3.102,-2.46 c -2.338,-4.528 -10.881,-11.555 -14.839,-14.948 l 0.38,-4.102 -7.86,-4.202 c 4.854,-0.468 3.237,-3.316 11.086,-7.856 -34.263,-15.511 -65.713,-15.973 -101.894,-4.418 6.782,-6.692 27.521,-8.617 36.925,-9.047 -8.443,-3.912 -30.141,6.168 -37.986,4.747 z"
     id="path115" />
  <path
     fill="#fffdf1"
     d="m 761.87,147.094 c 18.873,8.961 29.08,25.536 37.114,44.126 0.457,1.057 -0.321,2.56 -0.934,3.509 l -0.017,0.785 c -0.113,6.294 2.79,11.264 -4.025,16.117 -3.937,-15.656 -6.517,-18.663 -14.725,-32.464 l -3.078,1.495 -3.102,-2.46 c -2.338,-4.528 -10.881,-11.555 -14.839,-14.948 l 0.38,-4.102 -7.86,-4.202 c 4.854,-0.468 3.237,-3.316 11.086,-7.856 z"
     id="path116" />
  <path
     fill="#ecd091"
     d="m 758.644,159.152 c 11.786,4.128 15.148,8.736 20.639,20.015 l -3.078,1.495 -3.102,-2.46 c -2.338,-4.528 -10.881,-11.555 -14.839,-14.948 z"
     id="path117" />
  <path
     fill="#9f6f27"
     d="m 807.193,246.6 c 1.367,-5.05 5.082,-18.416 8.846,-21.868 l 1.796,0.32 c 1.278,15.024 1.094,22.271 -0.257,37.277 -0.396,1.577 -0.507,2.843 -1.625,3.974 l -3.445,0.61 c -1.124,-5.136 -2.149,-14.072 -5.307,-17.171 z"
     id="path118" />
  <path
     fill="url(#Gradient6)"
     d="m 798.05,194.729 c 7.954,15.32 9.886,34.84 9.143,51.871 l 0.008,3.142 c -3.705,16.298 -5.939,22.533 -13.571,37.153 -3.256,4.911 -9.149,15.645 -12.649,19.358 -16.834,17.857 -43.879,26.441 -67.431,28.547 -0.025,-12.527 -7.713,-8.578 -17.136,-10.599 l -0.989,-0.216 c 29.123,-0.465 57.462,-2.62 78.852,-26.806 23.99,-27.127 22.823,-51.315 19.731,-85.548 6.815,-4.853 3.912,-9.823 4.025,-16.117 z"
     id="path119"
     style="fill:url(#Gradient6)" />
  <path
     fill="#915910"
     d="m 658.915,138.376 c 7.845,1.421 29.543,-8.659 37.986,-4.747 -9.404,0.43 -30.143,2.355 -36.925,9.047 -23.081,12.115 -31.309,13.847 -44.946,37.674 -18.186,29.812 -19.82,69.852 -3.841,100.903 3.585,6.967 12.121,21.704 18.444,26.723 24.693,19.599 52.383,29.913 83.917,26.824 23.552,-2.106 50.597,-10.69 67.431,-28.547 3.5,-3.713 9.393,-14.447 12.649,-19.358 7.632,-14.62 9.866,-20.855 13.571,-37.153 3.158,3.099 4.183,12.035 5.307,17.171 l 3.445,-0.61 c 1.118,-1.131 1.229,-2.397 1.625,-3.974 2.984,8.714 36.428,20.009 45.59,25.703 36.87,22.914 77.46,37.75 114.326,60.694 26.826,15.663 59.636,25.18 86.166,43.073 14.58,8.626 32.92,14.885 47.95,22.83 26.14,13.818 53.97,30.79 82.11,40.197 -0.92,0.973 -1.66,1.655 -2.41,2.768 -0.07,1.693 0.07,2.285 -0.97,3.627 l 1.49,2.015 c -0.4,6.929 -8.75,9.022 -14.1,10.125 -23.56,-18.685 -49.72,-24.784 -76.3,-38.172 -11.85,-5.971 -23.73,-14.284 -35.5,-20.038 -14.89,-8.138 -33.9,-13.864 -48.35,-22.308 -29.836,-17.428 -60.38,-31.104 -91.608,-45.788 -9.556,-4.493 -18.728,-11.439 -28.493,-16.057 -17.235,-8.152 -34.637,-15.997 -51.622,-24.652 -7.45,-3.757 -27.19,-16.836 -32.374,-17.76 -3.062,-0.118 -4.591,-1.368 -7.164,-2.95 -3.058,0.32 -1.883,-0.208 -4.357,2.499 -6.65,14.258 -11.134,23.861 -23.056,34.856 l -3.523,1.86 c -3.96,0.859 -4.578,0.324 -7.102,2.706 l -0.108,3.342 c -1.334,5.849 -7.834,6.086 -13.426,7.528 0.974,4.687 1.513,3.919 0.163,7.917 -1.541,1.032 -2.616,1.832 -4.31,2.582 l 1.916,2.619 c -24.211,9.841 -67.057,12.594 -91.116,1.647 -4.649,-1.11 -4.282,-1.796 -8.095,-0.432 -4.599,6.247 -8.032,19.615 -11.917,26.902 -16.445,30.878 -27.557,63.302 -40.522,95.661 -3.399,8.484 -9.999,16.276 -13.291,24.506 -9.101,22.749 -17.257,46.002 -26.414,68.731 -5.109,12.683 -13.609,24.771 -18.403,37.724 -5.513,12.689 -13.748,40.084 -19.292,49.665 -4.655,1.229 -5.622,2.013 -8.436,-1.995 9.405,-20.498 17.53,-50.99 26.792,-72.344 5.216,-11.984 12.834,-23.124 17.883,-35.169 11.383,-27.324 19.705,-55.634 32.86,-82.265 4.043,-8.186 10.483,-17.954 13.645,-26.241 8.066,-21.142 15.565,-42.493 24.14,-63.453 4.643,-11.346 19.371,-27.902 18.458,-40.374 -2.101,-1.927 -4.095,-1.966 -6.879,-2.423 -12.675,-6.115 -23.461,-20.062 -28.978,-22.087 l -1.762,1.278 -0.489,-1.884 c -1.966,1.062 -2.085,1.199 -3.098,3.183 l 0.017,0.115 c -5.096,5.296 -15.488,7.332 -21.985,11.16 -15.118,8.909 -29.693,18.6 -44.77,27.572 -13.484,8.024 -27.404,14.67 -41.304,21.898 -10.432,5.577 -21.154,13.926 -31.686,19.896 -15.41,8.734 -31.366,16.699 -46.727,25.447 -8.195,4.667 -16.554,11.47 -24.954,16.328 l -82.873,47.768 c -7.187,4.094 -17.28,8.34 -23.382,11.97 -1.683,0.876 -1.84,0.432 -4.189,0.105 l -5.864,-8.655 c -11.556,-13.678 -20.605,-21.789 -36.768,-29.42 -23.651,-11.165 -61.327,-9.507 -85.17,-0.203 -12.205,6.098 -21.563,17.325 -25.42,18.988 l -0.836,-1.208 c 1.651,-0.618 1.739,-0.513 2.768,-2.015 l -1.449,-1.281 c -1.367,-0.107 -8.487,4.094 -10.765,5.051 2.28,-2.054 4.585,-4.079 6.916,-6.075 25.791,-21.987 50.73,-25.2 84.633,-23.938 15.04,0.559 39.179,10.843 50.855,20.315 2.315,1.878 8.519,9.226 10.776,11.901 24.424,-19.053 45.812,-28.33 73.157,-42.462 9.204,-5.141 17.618,-12.575 26.744,-17.734 15.89,-8.983 32.57,-16.881 48.42,-25.967 10.808,-6.196 20.718,-14.229 31.553,-20.38 l 80.267,-45.663 c 12.823,-7.321 26.868,-12.59 38.939,-21.219 6.434,-4.599 12.581,-9.592 18.768,-14.516 -3.474,-8.149 -5.345,-14.268 -6.558,-22.988 -4.545,-35.689 -1.186,-54.557 18.29,-83.663 16.962,-25.349 24.493,-33.574 53.91,-44.926 z"
     id="path120" />
  <path
     fill="#faeb7e"
     d="m 586.715,266.965 c 1.04,-1.84 2.123,-3.655 3.248,-5.444 1.547,2.06 0.804,3.237 1.691,5.53 3.003,7.763 13.947,17.162 1.908,22.403 l 1.071,3.324 c 3.591,-1.571 6.854,-3.477 10.644,-2.666 l 2.214,1.527 c 0.409,3.322 -0.621,5.542 -2.685,8.205 -6.297,8.125 -50.784,27.088 -62.609,34.369 -6.425,3.957 -11.561,9.901 -17.962,13.867 -6.922,4.288 -14.939,7.558 -22.22,11.244 -11.8,6.08 -23.489,12.373 -35.061,18.875 -9.601,5.396 -18.474,12.556 -28.127,18.419 -8.182,4.97 -21.093,9.755 -28.428,14.529 -17.589,11.832 -35.367,22.28 -53.912,32.527 -8.92,4.929 -19.786,8.723 -28.061,13.727 -14.898,9.01 -29.301,24.61 -48.126,26.605 l -0.731,0.071 0.316,1.702 c -11.556,-13.678 -20.605,-21.789 -36.768,-29.42 -23.651,-11.165 -61.327,-9.507 -85.17,-0.203 -12.205,6.098 -21.563,17.325 -25.42,18.988 l -0.836,-1.208 c 1.651,-0.618 1.739,-0.513 2.768,-2.015 l -1.449,-1.281 c -1.367,-0.107 -8.487,4.094 -10.765,5.051 2.28,-2.054 4.585,-4.079 6.916,-6.075 25.791,-21.987 50.73,-25.2 84.633,-23.938 15.04,0.559 39.179,10.843 50.855,20.315 2.315,1.878 8.519,9.226 10.776,11.901 24.424,-19.053 45.812,-28.33 73.157,-42.462 9.204,-5.141 17.618,-12.575 26.744,-17.734 15.89,-8.983 32.57,-16.881 48.42,-25.967 10.808,-6.196 20.718,-14.229 31.553,-20.38 l 80.267,-45.663 c 12.823,-7.321 26.868,-12.59 38.939,-21.219 6.434,-4.599 12.581,-9.592 18.768,-14.516 -3.474,-8.149 -5.345,-14.268 -6.558,-22.988 z"
     id="path121" />
  <path
     fill="#7e6b3d"
     d="m 586.715,266.965 c 1.04,-1.84 2.123,-3.655 3.248,-5.444 1.547,2.06 0.804,3.237 1.691,5.53 3.003,7.763 13.947,17.162 1.908,22.403 l 1.071,3.324 c -9.944,5.831 -18.591,13.747 -28.441,19.723 -7.903,4.794 -18.593,7.796 -26.242,12.641 -28.61,18.122 -57.215,35.212 -87.637,50.152 -5.482,2.692 -11.593,8.749 -16.903,12.053 -18.845,12.287 -40.489,20.767 -59.855,32.411 -7.656,4.603 -14.48,10.884 -22.048,15.655 -22.263,12.068 -56.749,25.12 -74.418,44.185 -0.592,0.639 0.215,3.502 0.48,4.479 l 0.316,1.702 c -11.556,-13.678 -20.605,-21.789 -36.768,-29.42 -23.651,-11.165 -61.327,-9.507 -85.17,-0.203 -12.205,6.098 -21.563,17.325 -25.42,18.988 l -0.836,-1.208 c 1.651,-0.618 1.739,-0.513 2.768,-2.015 l -1.449,-1.281 c -1.367,-0.107 -8.487,4.094 -10.765,5.051 2.28,-2.054 4.585,-4.079 6.916,-6.075 25.791,-21.987 50.73,-25.2 84.633,-23.938 15.04,0.559 39.179,10.843 50.855,20.315 2.315,1.878 8.519,9.226 10.776,11.901 24.424,-19.053 45.812,-28.33 73.157,-42.462 9.204,-5.141 17.618,-12.575 26.744,-17.734 15.89,-8.983 32.57,-16.881 48.42,-25.967 10.808,-6.196 20.718,-14.229 31.553,-20.38 l 80.267,-45.663 c 12.823,-7.321 26.868,-12.59 38.939,-21.219 6.434,-4.599 12.581,-9.592 18.768,-14.516 -3.474,-8.149 -5.345,-14.268 -6.558,-22.988 z"
     id="path122" />
  <path
     fill="#faeb7e"
     d="m 817.578,262.329 c 2.984,8.714 36.428,20.009 45.59,25.703 36.87,22.914 77.46,37.75 114.326,60.694 26.826,15.663 59.636,25.18 86.166,43.073 14.58,8.626 32.92,14.885 47.95,22.83 26.14,13.818 53.97,30.79 82.11,40.197 -0.92,0.973 -1.66,1.655 -2.41,2.768 -0.07,1.693 0.07,2.285 -0.97,3.627 -11.66,-0.998 -48.87,-19.619 -61.87,-25.342 -19.43,-8.556 -48.82,-30.896 -69.65,-35.145 -7.86,-3.482 -15.26,-6.554 -21.98,-12.022 -21.8,-12.489 -44.617,-22.94 -67.63,-32.93 -13.004,-5.645 -25.168,-13.908 -37.852,-20.474 L 852.109,294.497 C 842.966,289.786 815,278.104 810.077,271.777 l 2.431,-4.864 3.445,-0.61 c 1.118,-1.131 1.229,-2.397 1.625,-3.974 z"
     id="path123" />
  <path
     fill="#7e6b3d"
     d="m 817.578,262.329 c 2.984,8.714 36.428,20.009 45.59,25.703 36.87,22.914 77.46,37.75 114.326,60.694 26.826,15.663 59.636,25.18 86.166,43.073 14.58,8.626 32.92,14.885 47.95,22.83 26.14,13.818 53.97,30.79 82.11,40.197 -0.92,0.973 -1.66,1.655 -2.41,2.768 -13.79,-6.821 -29.06,-13.219 -42.49,-20.283 -29.57,-15.547 -57.67,-30.702 -88.42,-44.206 -5.86,-2.878 -11.52,-6.324 -17.16,-9.628 -20.81,-14.261 -47.616,-20.696 -68.163,-33.486 -38.836,-24.175 -80.351,-39.585 -119.192,-63.692 -10.589,-6.572 -30.571,-11.025 -39.932,-19.996 1.118,-1.131 1.229,-2.397 1.625,-3.974 z"
     id="path124" />
  <path
     fill="url(#Gradient5)"
     d="m 674.186,347.569 c 25.623,3.197 43.822,5.366 70.184,-2.626 7.029,-2.13 8.871,-5.909 10.377,-6.516 0.974,4.687 1.513,3.919 0.163,7.917 -1.541,1.032 -2.616,1.832 -4.31,2.582 -28.586,10.023 -48.662,8.283 -77.608,3.733 z"
     id="path125"
     style="fill:url(#Gradient5)" />
  <path
     fill="#d19a35"
     d="m 657.103,347.941 c -0.949,-3.188 -1.244,-2.351 -0.18,-4.721 3.409,-0.484 13.241,3.118 17.263,4.349 l -1.194,5.09 c -5.307,-1.539 -10.603,-3.112 -15.889,-4.718 z"
     id="path126" />
  <path
     fill="url(#Gradient4)"
     d="m 853.765,726.472 c 3.704,13.692 -2.477,30.39 0.292,44.801 0.662,3.444 0.085,4.041 -1.001,7.05 l -2.623,6.986 -3.121,3.051 c -1.613,-3.002 -1.402,-4.773 -4.112,-7.304 -15.699,-1.025 -37.485,-0.418 -53.546,-0.427 l -95.858,0.034 c -17.52,0.07 -35.041,0.028 -52.56,-0.128 -8.195,-0.078 -24.323,-0.699 -31.871,0.152 l -0.431,-0.48 c -3.104,-3.392 -2.823,-2.789 -6.778,-2.966 -0.096,-1.384 1.713,-16.518 1.937,-19.988 2.585,4.778 -0.385,5.163 2.725,9.651 0.585,-2.732 0.649,-3.981 2.565,-6.109 5.382,-3.09 74.839,-1.815 85.145,-1.805 l 149.111,-0.051 1.051,-2.888 c -1.018,-11.731 4.668,-19.223 9.075,-29.579 z"
     id="path127"
     style="fill:url(#Gradient4)" />
  <path
     fill="#faeb7e"
     d="m 606.818,766.904 c 0.585,-2.732 0.649,-3.981 2.565,-6.109 5.382,-3.09 74.839,-1.815 85.145,-1.805 l 149.111,-0.051 c 0.472,2.975 1.247,5.742 -0.028,8.452 -4.32,2.928 -46.886,1.699 -54.637,1.704 l -105.268,-0.011 -48.585,-0.002 c -7.785,-0.009 -21.692,0.89 -28.303,-2.178 z"
     id="path128" />
  <path
     fill="#faeb7e"
     d="m 641.929,331.685 c 2.784,0.457 4.778,0.496 6.879,2.423 0.913,12.472 -13.815,29.028 -18.458,40.374 -8.575,20.96 -16.074,42.311 -24.14,63.453 -3.162,8.287 -9.602,18.055 -13.645,26.241 -13.155,26.631 -21.477,54.941 -32.86,82.265 -5.049,12.045 -12.667,23.185 -17.883,35.169 -9.262,21.354 -17.387,51.846 -26.792,72.344 l -0.223,0.522 c -2.97,1.451 -9.188,0.531 -13.048,0.358 1.779,-5.49 3.537,-10.893 5.782,-16.217 3.507,-8.686 10.607,-18.227 13.703,-26.833 11.746,-32.653 23.77,-62.978 39.939,-93.711 10.816,-20.559 15.725,-48.757 27.456,-69.734 14.071,-25.165 24.309,-52.271 34.308,-79.218 4.319,-12.382 13.88,-23.628 17.914,-35.119 z"
     id="path129" />
  <path
     fill="#7e6b3d"
     d="m 607.619,312.29 -0.017,-0.115 c 1.013,-1.984 1.132,-2.121 3.098,-3.183 l 0.489,1.884 1.762,-1.278 c 5.517,2.025 16.303,15.972 28.978,22.087 l -1.068,2.317 c -4.034,11.491 -13.595,22.737 -17.914,35.119 -9.999,26.947 -20.237,54.053 -34.308,79.218 -11.731,20.977 -16.64,49.175 -27.456,69.734 -16.169,30.733 -28.193,61.058 -39.939,93.711 -3.096,8.606 -10.196,18.147 -13.703,26.833 -2.245,5.324 -4.003,10.727 -5.782,16.217 3.86,0.173 10.078,1.093 13.048,-0.358 l 0.223,-0.522 c 2.814,4.008 3.781,3.224 8.436,1.995 4.929,4.112 26.319,9.31 33.228,13.287 8.933,5.142 14.048,11.208 20.713,18.935 21.421,22.539 28.222,33.49 32.583,64.84 0.159,1.158 0.264,2.323 0.315,3.491 31.996,-1.215 67.876,-0.491 100.178,-0.47 l 134.207,0.019 -1.051,2.888 -149.111,0.051 c -10.306,-0.01 -79.763,-1.285 -85.145,1.805 -1.916,2.128 -1.98,3.377 -2.565,6.109 -3.11,-4.488 -0.14,-4.873 -2.725,-9.651 -0.328,-5.574 -0.179,-8.429 -3.13,-13.123 -0.318,-5.683 3.768,-9.114 -0.139,-14.519 -2.847,2.073 -1.576,6.067 -4.881,8.111 -6.707,-7.453 -4.76,-28.262 -15.03,-41.041 -8.522,-12.264 -20.382,-24.258 -35.045,-28.356 -21.38,-11.975 -52.855,-8.816 -76.064,-5.876 -2.352,-0.032 -1.339,0.349 -3.132,-1.195 l -1.739,0.547 -0.021,-0.796 3.307,-1.071 0.545,-1.56 c 9.981,-0.893 20.044,-2.448 29.975,-3.866 3.022,-8.173 5.884,-15.978 9.597,-23.865 3.28,-7.445 9.104,-15.509 11.885,-23.08 11.444,-31.155 22.993,-60.032 38.17,-89.603 10.323,-20.114 16.57,-46.994 26.557,-67.716 7.894,-16.378 16.632,-32.389 23.307,-49.313 3.562,-9.807 7.453,-20.035 11.383,-29.68 4.434,-10.885 9.591,-20.782 13.424,-31.999 -9.03,-8.507 -18.313,-16.804 -25.443,-26.962 z"
     id="path130" />
  <path
     fill="#d19a35"
     d="m 611.189,310.876 1.762,-1.278 c 5.517,2.025 16.303,15.972 28.978,22.087 l -1.068,2.317 c -2.485,-3.057 -1.996,-1.726 -7.271,-2.324 -7.535,-0.855 -17.786,-14.958 -22.401,-20.802 z"
     id="path131" />
  <path
     fill="#9f6f27"
     d="m 291.5,520.98 2.084,-0.367 c 1.964,1.88 1.914,2.449 2.691,5.183 l 5.591,-0.432 1.752,-3.509 c 8.205,24.354 6.84,58.402 -11.091,78.362 l -0.129,1.227 c -5.305,-1.589 -4.438,-0.47 -7.311,-4.255 5.88,-10.92 9.996,-22.701 12.197,-34.906 -0.482,-4.384 0.061,-5.902 -3.892,-8.041 0.927,-13.182 0.194,-20.174 -1.892,-33.262 z"
     id="path132" />
  <path
     fill="#d19a35"
     d="m 297.284,562.283 c 17.031,2.607 -7.237,28.334 -4.757,37.934 l -0.129,1.227 c -5.305,-1.589 -4.438,-0.47 -7.311,-4.255 5.88,-10.92 9.996,-22.701 12.197,-34.906 z"
     id="path133" />
  <path
     fill="#ecd091"
     d="m 296.275,525.796 5.591,-0.432 c 1.238,4.653 2.399,7.691 -0.539,11.975 -4.995,-0.319 -4.66,-7.377 -5.052,-11.543 z"
     id="path134" />
  <path
     fill="#c49d54"
     d="m 285.749,494.434 c 2.349,0.327 2.506,0.771 4.189,-0.105 5.99,9.648 9.649,16.913 13.68,27.526 l -1.752,3.509 -5.591,0.432 c -0.777,-2.734 -0.727,-3.303 -2.691,-5.183 l -2.084,0.367 c -2.624,-5.602 -4.883,-20.305 -5.751,-26.546 z"
     id="path135" />
  <path
     fill="#9f6f27"
     d="m 923.997,664.158 c 25.621,-5.229 41.255,-3.913 66.613,-2.102 6.075,1.292 8.83,1.73 14.54,4.374 18.71,4.778 27.49,16.503 39.4,30.713 2.18,2.594 3.76,6.286 6.22,7.78 l 0.64,1.165 c 2.51,3.174 5.54,7.947 9.13,9.119 l 2.06,-1.822 c 4.79,9.365 11.08,31.9 11.74,42.109 7.43,116.512 -153.048,161.089 -212.589,63.931 -4.688,-7.649 -8.267,-28.001 -14.439,-31.065 l 3.121,-3.051 2.623,-6.986 c 1.086,-3.009 1.663,-3.606 1.001,-7.05 -2.769,-14.411 3.412,-31.109 -0.292,-44.801 11.38,-32.186 31.767,-52.73 63.487,-64.795 2.594,0.601 4.741,0.813 6.745,2.481 z"
     id="path136" />
  <path
     fill="#915910"
     d="m 917.252,661.677 c 2.594,0.601 4.741,0.813 6.745,2.481 -49.61,18.359 -76.066,68.157 -60.488,120.08 2.041,6.804 7.605,16.887 10.863,23.672 4.475,0.045 6.724,-3.472 9.314,-6.661 20.132,29.484 49.791,35.354 82.974,35.391 1.326,6.566 1.961,8.127 -1.366,13.9 23.392,-3.923 60.796,-15.409 75.376,-36.084 5.77,-8.175 11.53,-19.805 16.83,-28.761 6.44,-11.891 6.85,-27.986 6.27,-41.054 -1.56,-3.635 -5.05,-10.327 -7.14,-13.711 -1.86,-5.461 -5.34,-14.991 -6.82,-20.908 0.63,-1.559 1.17,-2.87 1.6,-3.934 2.51,3.174 5.54,7.947 9.13,9.119 l 2.06,-1.822 c 4.79,9.365 11.08,31.9 11.74,42.109 7.43,116.512 -153.048,161.089 -212.589,63.931 -4.688,-7.649 -8.267,-28.001 -14.439,-31.065 l 3.121,-3.051 2.623,-6.986 c 1.086,-3.009 1.663,-3.606 1.001,-7.05 -2.769,-14.411 3.412,-31.109 -0.292,-44.801 11.38,-32.186 31.767,-52.73 63.487,-64.795 z"
     id="path137" />
  <path
     fill="#9f6f27"
     d="m 1051.41,706.088 c 2.51,3.174 5.54,7.947 9.13,9.119 l 2.06,-1.822 c 4.79,9.365 11.08,31.9 11.74,42.109 7.43,116.512 -153.048,161.089 -212.589,63.931 -4.688,-7.649 -8.267,-28.001 -14.439,-31.065 l 3.121,-3.051 c 3.597,3.786 5.383,9.206 6.957,14.211 l 3.027,0.518 c 11.062,27.501 30.138,42.808 57.226,55.377 21.624,10.034 62.612,7.512 84.827,-0.52 14.89,-6.118 36.6,-20.595 44.98,-34.794 3.54,-6.002 7.24,-14.564 10.09,-19.019 l -0.33,-1.345 -0.87,-1.212 c 1.22,-2.54 2.48,-5.058 3.79,-7.551 -0.12,-3.683 0.45,-2.254 -2.63,-5.279 6.44,-11.891 6.85,-27.986 6.27,-41.054 -1.56,-3.635 -5.05,-10.327 -7.14,-13.711 -1.86,-5.461 -5.34,-14.991 -6.82,-20.908 0.63,-1.559 1.17,-2.87 1.6,-3.934 z"
     id="path138" />
  <path
     fill="#d19a35"
     d="m 857.39,799.52 3.027,0.518 c 11.062,27.501 30.138,42.808 57.226,55.377 21.624,10.034 62.612,7.512 84.827,-0.52 14.89,-6.118 36.6,-20.595 44.98,-34.794 3.54,-6.002 7.24,-14.564 10.09,-19.019 4.77,14.437 -2.51,16.369 -10.91,27.054 -15.43,20.011 -31.08,28.876 -54.679,35.76 -49.798,14.527 -121.507,-7.969 -134.561,-64.376 z"
     id="path139" />
  <path
     fill="#6b4016"
     d="m 1063.77,744.641 1.42,-1.065 c 7.12,12.45 -0.14,44.315 -7.98,56.161 l -0.87,-1.212 c 1.22,-2.54 2.48,-5.058 3.79,-7.551 -0.12,-3.683 0.45,-2.254 -2.63,-5.279 6.44,-11.891 6.85,-27.986 6.27,-41.054 z"
     id="path140" />
  <path
     fill="url(#Gradient3)"
     d="m 883.686,801.249 c 20.132,29.484 49.791,35.354 82.974,35.391 1.326,6.566 1.961,8.127 -1.366,13.9 -16.436,1.97 -40.059,-6.376 -54.775,-13.179 -15.071,-6.966 -28.32,-14.127 -36.147,-29.451 4.475,0.045 6.724,-3.472 9.314,-6.661 z"
     id="path141"
     style="fill:url(#Gradient3)" />
  <path
     fill="#ecd091"
     d="m 853.056,778.323 c 1.502,2.922 5.798,17.249 7.361,21.715 l -3.027,-0.518 c -1.574,-5.005 -3.36,-10.425 -6.957,-14.211 z"
     id="path142" />
  <path
     fill="url(#Gradient2)"
     d="m 923.997,664.158 c 25.621,-5.229 41.255,-3.913 66.613,-2.102 6.075,1.292 8.83,1.73 14.54,4.374 -4.93,2.294 -15.74,-3.858 -22.257,-1.894 -0.562,1.189 -1.035,2.191 -1.42,3.005 2.317,0.781 4.627,1.583 6.929,2.406 l 0.524,1.696 c -19.684,-3.722 -58.764,-5.659 -74.802,7.049 -21.971,17.409 -38.758,24.2 -43.682,54.12 -4.524,27.488 -2.068,45.633 13.244,68.437 -2.59,3.189 -4.839,6.706 -9.314,6.661 -3.258,-6.785 -8.822,-16.868 -10.863,-23.672 -15.578,-51.923 10.878,-101.721 60.488,-120.08 z"
     id="path143"
     style="fill:url(#Gradient2)" />
  <path
     fill="#faeb7e"
     d="m 1048.83,736.081 1.17,-0.115 c -1.33,-7.436 -1.06,-9.799 -0.46,-17.301 2.04,2.742 3.93,9.531 5.26,13.217 l 1.83,-0.952 c 2.09,3.384 5.58,10.076 7.14,13.711 0.58,13.068 0.17,29.163 -6.27,41.054 -5.3,8.956 -11.06,20.586 -16.83,28.761 -14.58,20.675 -51.984,32.161 -75.376,36.084 3.327,-5.773 2.692,-7.334 1.366,-13.9 4.683,-1.182 11.404,-0.552 16.576,-1.692 50.864,-11.216 73.854,-48.435 65.594,-98.867 z"
     id="path144" />
  <path
     fill="#fffdf1"
     d="m 988.926,671.643 -0.524,-1.696 c -2.302,-0.823 -4.612,-1.625 -6.929,-2.406 0.385,-0.814 0.858,-1.816 1.42,-3.005 6.517,-1.964 17.327,4.188 22.257,1.894 18.71,4.778 27.49,16.503 39.4,30.713 2.18,2.594 3.76,6.286 6.22,7.78 l 0.64,1.165 c -0.43,1.064 -0.97,2.375 -1.6,3.934 1.48,5.917 4.96,15.447 6.82,20.908 l -1.83,0.952 c -1.33,-3.686 -3.22,-10.475 -5.26,-13.217 -0.6,7.502 -0.87,9.865 0.46,17.301 l -1.17,0.115 c -5.17,-17.06 -10.62,-32.116 -25.71,-42.887 -10.79,-7.708 -22,-16.384 -34.194,-21.551 z"
     id="path145" />
  <path
     fill="url(#Gradient1)"
     d="m 926.053,679.261 c 13.518,-7.105 44.021,-8.86 57.195,-3.609 17.702,7.057 47.322,22.247 54.922,40.471 3.5,8.386 8.24,19.838 8.8,28.815 2.53,9.174 0.17,28.721 -3.76,37.848 -10.03,23.345 -19.43,33.171 -42.54,43.487 -22.361,10.133 -54.2,9.907 -77.174,2.125 -16.942,-5.981 -38.165,-28.094 -45.249,-44.036 -10.576,-23.8 -6.134,-67.804 15.467,-84.537 8.762,-6.787 22.16,-16.127 32.339,-20.564 z"
     id="path146"
     style="fill:url(#Gradient1)" />
  <path
     fill="#ecd091"
     d="m 1046.97,744.938 c 2.53,9.174 0.17,28.721 -3.76,37.848 -10.03,23.345 -19.43,33.171 -42.54,43.487 -22.361,10.133 -54.2,9.907 -77.174,2.125 -16.942,-5.981 -38.165,-28.094 -45.249,-44.036 -10.576,-23.8 -6.134,-67.804 15.467,-84.537 8.762,-6.787 22.16,-16.127 32.339,-20.564 -0.067,0.204 -0.122,0.412 -0.2,0.612 -3.437,8.768 -21.156,11.244 -27.1,20.074 -3.723,5.53 -5.103,60.197 -2.353,66.847 0.359,0.869 0.926,1.11 1.65,1.672 l 1.669,-0.307 c 0.932,-2.503 0.837,-2.947 0.561,-5.624 4.089,15.189 19.151,46.422 34.767,51.211 42.443,13.017 76.783,-2.783 98.653,-40.254 0.76,1.758 -0.59,4.641 -1.37,6.579 -6.94,17.222 -20.61,17.841 -31,35.592 12.4,-12.76 14.16,-14.358 31.78,-18.326 11.53,-19.128 12.75,-30.158 13.86,-52.399 z"
     id="path147" />
  <text
     xml:space="preserve"
     style="font-style:normal;font-variant:normal;font-weight:normal;font-stretch:condensed;font-size:67.4078px;font-family:Impact;-inkscape-font-specification:'Impact Condensed';text-align:center;writing-mode:lr-tb;direction:ltr;text-anchor:middle;white-space:pre;inline-size:97.2107;fill:#0b0b0b;fill-opacity:0.941176;stroke-width:4"
     x="701.68689"
     y="254.34412"
     id="text149"
     transform="matrix(1.7753132,0,0,1.3895712,-544.28104,-92.843067)"
     inkscape:label="PTU"><tspan
       x="701.68689"
       y="254.34412"
       id="tspan6"><tspan
         style="font-size:58.9819px"
         id="tspan5">PTU</tspan></tspan></text>
  <text
     xml:space="preserve"
     style="font-style:normal;font-variant:normal;font-weight:normal;font-stretch:condensed;font-size:67.4078px;font-family:Impact;-inkscape-font-specification:'Impact Condensed';text-align:center;writing-mode:lr-tb;direction:ltr;text-anchor:middle;white-space:pre;inline-size:97.2107;display:block;fill:#0b0b0b;fill-opacity:0.941176;stroke-width:4"
     x="701.68689"
     y="254.34412"
     id="text149-2"
     transform="matrix(1.7753132,0,0,1.3895712,-1048.9004,221.36976)"
     inkscape:label="MU"><tspan
       x="701.68689"
       y="254.34412"
       id="tspan8"><tspan
         style="font-size:58.9819px"
         id="tspan7">MU</tspan></tspan></text>
  <text
     xml:space="preserve"
     style="font-style:normal;font-variant:normal;font-weight:normal;font-stretch:condensed;font-size:67.4078px;font-family:Impact;-inkscape-font-specification:'Impact Condensed';text-align:center;writing-mode:lr-tb;direction:ltr;text-anchor:middle;white-space:pre;inline-size:97.2107;display:block;fill:#0b0b0b;fill-opacity:0.941176;stroke-width:4"
     x="701.68689"
     y="254.34412"
     id="text149-2-6"
     transform="matrix(1.7753132,0,0,1.3895712,-753.55713,430.09421)"
     inkscape:label="MP"><tspan
       x="701.68689"
       y="254.34412"
       id="tspan10"><tspan
         style="font-size:58.9819px"
         id="tspan9">MP</tspan></tspan></text>
  <text
     xml:space="preserve"
     style="font-style:normal;font-variant:normal;font-weight:normal;font-stretch:condensed;font-size:67.4078px;font-family:Impact;-inkscape-font-specification:'Impact Condensed';text-align:center;writing-mode:lr-tb;direction:ltr;text-anchor:middle;white-space:pre;inline-size:97.2107;display:block;fill:#0b0b0b;fill-opacity:0.941176;stroke-width:4"
     x="701.68689"
     y="254.34412"
     id="text149-2-6-5"
     transform="matrix(1.7753132,0,0,1.3895712,-285.25445,434.08905)"
     inkscape:label="P1"><tspan
       x="701.68689"
       y="254.34412"
       id="tspan11">P1</tspan></text>
  <text
     xml:space="preserve"
     style="font-style:normal;font-variant:normal;font-weight:normal;font-stretch:condensed;font-size:67.4078px;font-family:Impact;-inkscape-font-specification:'Impact Condensed';text-align:center;writing-mode:lr-tb;direction:ltr;text-anchor:middle;white-space:pre;inline-size:97.2107;display:block;fill:#0b0b0b;fill-opacity:0.941176;stroke-width:4"
     x="701.68689"
     y="254.34412"
     id="text149-2-6-5-8"
     transform="matrix(1.7753132,0,0,1.3895712,31.012049,200.94899)"
     inkscape:label="P2"><tspan
       x="701.68689"
       y="254.34412"
       id="tspan12">P2</tspan></text>
</svg>
